<?xml version="1.0" encoding="UTF-8"?>
<svg version="1.1" xmlns="http://www.w3.org/2000/svg" width="512" height="512">
<path d="M0 0 C14.52 0 29.04 0 44 0 C44.33 94.71 44.66 189.42 45 287 C79.65 252.35 114.3 217.7 150 182 C153.19771119 183.5988556 154.66449155 184.41598693 157.02441406 186.79736328 C157.58469299 187.35779327 158.14497192 187.91822327 158.722229 188.49563599 C159.31404968 189.09777924 159.90587036 189.69992249 160.515625 190.3203125 C161.13145447 190.93897186 161.74728394 191.55763123 162.3817749 192.19503784 C164.34260336 194.16703814 166.29635301 196.14588737 168.25 198.125 C169.58026799 199.46530164 170.910992 200.80515083 172.2421875 202.14453125 C175.5001015 205.42446589 178.75168533 208.71055942 182 212 C178.02103877 216.76717112 173.87081241 221.27162629 169.47000122 225.6502533 C168.84009116 226.28101778 168.2101811 226.91178227 167.56118286 227.56166083 C165.4677941 229.65668554 163.37087204 231.74813614 161.27392578 233.83959961 C159.76545588 235.34778721 158.2572066 236.8561955 156.74916077 238.36480713 C152.66717136 242.44708282 148.58211146 246.52627326 144.49648523 250.6049087 C140.22257904 254.87255326 135.95151453 259.14303985 131.68014526 263.41322327 C123.59688385 271.49337965 115.51107723 279.57098404 107.42434871 287.64767033 C98.21563618 296.84519601 89.0097713 306.04556967 79.80414224 315.24618137 C60.87259073 334.16728724 41.93747335 353.08482122 23 372 C18.66089603 370.33639169 15.75972622 367.03135603 12.55865479 363.79916382 C11.91411937 363.15633725 11.26958395 362.51351068 10.60551715 361.85120451 C8.44349093 359.69247682 6.28869811 357.52667045 4.13378906 355.36083984 C2.58685023 353.81333698 1.03947109 352.26627416 -0.50831604 350.71961975 C-4.71284885 346.51566176 -8.91117822 342.30555716 -13.10844326 338.09434462 C-17.49444647 333.69585554 -21.88609808 329.30301363 -26.27716064 324.90957642 C-33.64779629 317.53342691 -41.01492902 310.15379399 -48.37939453 302.77148438 C-55.96461512 295.16790394 -63.55193479 287.56642827 -71.14208984 279.96777344 C-71.60999726 279.49934058 -72.07790467 279.03090772 -72.55999109 278.54827993 C-74.90737331 276.19828762 -77.25479915 273.84833888 -79.60224104 271.49840617 C-99.0744844 252.0052466 -118.53958012 232.50496269 -138 213 C-137.0612573 211.89479426 -136.12105894 210.79082483 -135.18026733 209.68736267 C-134.65685446 209.07245437 -134.13344158 208.45754606 -133.59416771 207.82400417 C-131.23145252 205.12064847 -128.71507062 202.59076174 -126.1640625 200.06640625 C-125.63984711 199.5436058 -125.11563171 199.02080536 -124.57553101 198.48216248 C-122.9277213 196.83987655 -121.27644099 195.2011335 -119.625 193.5625 C-118.49586045 192.43838533 -117.36695222 191.31403826 -116.23828125 190.18945312 C-113.49484812 187.45694765 -110.74830015 184.72760991 -108 182 C-104.51970879 183.49368515 -102.27381652 185.47917418 -99.60870361 188.15078735 C-98.73835102 189.01838495 -97.86799843 189.88598255 -96.97127151 190.77987099 C-96.01103286 191.7472027 -95.05088591 192.71462544 -94.09082031 193.68212891 C-93.05949369 194.71406833 -92.02772679 195.74556789 -90.99555588 196.77666283 C-88.23368927 199.53807808 -85.47788587 202.30546981 -82.72329712 205.07414246 C-80.13719803 207.6716348 -77.54567942 210.26368658 -74.95458984 212.85620117 C-67.38093248 220.44035151 -59.81599785 228.03320846 -52.25 235.625 C-35.3375 252.57875 -18.425 269.5325 -1 287 C-0.505 144.935 -0.505 144.935 0 0 Z " fill="#B9CAD3" transform="translate(234,64)"/>
</svg>
