<?xml version="1.0" encoding="UTF-8"?>
<svg version="1.1" xmlns="http://www.w3.org/2000/svg" width="372" height="372">
<path d="M0 0 C8.2971856 6.98606378 15.90135 14.74037225 23.57202148 22.39501953 C24.90833463 23.72505348 26.24483178 25.05490259 27.58149719 26.38458252 C31.93155261 30.71379664 36.27645283 35.04816577 40.62109375 39.3828125 C42.12360051 40.88126649 43.62613938 42.37968829 45.12870979 43.87807846 C52.17973184 50.91010558 59.22837984 57.94450165 66.27409214 64.98184884 C74.39200541 73.08996179 82.51815888 81.18969916 90.65129036 89.28254616 C96.95320418 95.55431721 103.24743855 101.83372877 109.53595597 108.11893165 C113.28637146 111.86699793 117.04001312 115.61169241 120.80181694 119.34833145 C124.33434106 122.85759728 127.85724732 126.37623907 131.37301445 129.90229034 C132.66314321 131.19291483 133.95669138 132.48013178 135.25391006 133.76362991 C137.02650639 135.51852213 138.78627328 137.28537369 140.54344177 139.05569458 C141.05705102 139.55833458 141.57066027 140.06097458 142.09983343 140.5788461 C147.58258556 146.16094806 149.42935741 151.6124728 149.4375 159.4375 C149.22346951 168.12713786 147.53123205 172.81719545 141.3125 178.8125 C135.68736646 183.38357327 129.30334299 185.6579847 122.0234375 185.26953125 C107.49524104 183.33430817 97.90178572 170.04373539 88.0546875 160.15234375 C86.78576204 158.88149493 85.51660562 157.61087669 84.24723816 156.34046936 C81.53456554 153.62465768 78.82344857 150.90730627 76.11355591 148.1887207 C71.83035431 143.89191663 67.54326899 139.5990014 63.25561523 135.30664062 C54.16743053 126.20739968 45.08351125 117.10390596 36 108 C26.16435675 98.14232207 16.32796951 88.28539305 6.48672485 78.43330669 C2.22162469 74.16321764 -2.04102444 69.89070114 -6.30182743 65.61632442 C-8.94330564 62.96741113 -11.58683226 60.32054952 -14.23093224 57.67425346 C-15.45975312 56.44355393 -16.68770599 55.21198704 -17.91474342 53.97950935 C-19.58402883 52.30305334 -21.25633066 50.62966631 -22.92944336 48.95703125 C-23.41872881 48.46415084 -23.90801426 47.97127043 -24.41212654 47.46345425 C-27.25574992 44.62857051 -28.77435815 43.1260926 -32.84075451 42.70774651 C-36.70843566 43.06553552 -37.78772225 44.00081614 -40.54792786 46.67605591 C-41.84606132 47.91839178 -41.84606132 47.91839178 -43.17041969 49.18582535 C-44.57106194 50.5788418 -44.57106194 50.5788418 -46 52 C-47.00097863 52.9824259 -48.00225052 53.96455308 -49.0037899 54.94640732 C-52.43936092 58.33313623 -55.83609641 61.75782381 -59.2331543 65.18310547 C-60.533348 66.49014417 -61.83380099 67.796925 -63.13449097 69.10346985 C-65.91577181 71.8979909 -68.69560568 74.69394038 -71.47440147 77.49093246 C-75.8710686 81.91561967 -80.27330654 86.33473601 -84.67671204 90.75271606 C-86.18870394 92.26985035 -87.70068871 93.78699175 -89.21266651 95.30414009 C-89.96925198 96.06331112 -90.72583745 96.82248215 -91.50534976 97.60465837 C-101.74269243 107.87797097 -111.97516826 118.15609583 -122.19750977 128.44433594 C-129.11313413 135.4044521 -136.035853 142.35742668 -142.96670085 149.3023845 C-146.62808242 152.97183177 -150.28566377 156.6448982 -153.93448448 160.32683945 C-157.36104598 163.78445785 -160.79679274 167.23267336 -164.23978806 170.6739254 C-165.4997962 171.93662763 -166.75637741 173.20276038 -168.0092144 174.47257805 C-169.72243534 176.20800498 -171.44764603 177.93058452 -173.17631531 179.65060425 C-173.66660034 180.15322277 -174.15688538 180.65584129 -174.66202754 181.17369068 C-180.1950222 186.6203832 -185.68153389 188.42942928 -193.4375 188.4375 C-202.12713786 188.22346951 -206.81719545 186.53123205 -212.8125 180.3125 C-217.38357327 174.68736646 -219.6579847 168.30334299 -219.26953125 161.0234375 C-217.30921844 146.30688625 -203.60434423 136.4419729 -193.62426758 126.41552734 C-192.29575723 125.07745632 -190.96741315 123.73922019 -189.63922119 122.40083313 C-185.31151729 118.042023 -180.9785071 113.68851034 -176.64453125 109.3359375 C-175.53373723 108.22019749 -175.53373723 108.22019749 -174.40050292 107.08191729 C-167.40279163 100.05345731 -160.40303968 93.02703555 -153.39844227 86.00543785 C-144.48045931 77.06554359 -135.57269269 68.11573321 -126.67855531 59.15211332 C-120.39916803 52.82535962 -114.10821071 46.51025666 -107.80872077 40.20351946 C-104.05724158 36.44710723 -100.31089631 32.68590144 -96.57697487 28.91202927 C-93.06308448 25.36103098 -89.53495038 21.82480799 -85.99586487 18.2989254 C-84.70802847 17.01103548 -83.42521423 15.71809827 -82.14818382 14.41949272 C-72.08152093 4.19206856 -61.31920609 -4.55541961 -47 -8 C-46.27039063 -8.18175781 -45.54078125 -8.36351563 -44.7890625 -8.55078125 C-29.31716852 -11.04275297 -13.20980891 -8.6658943 0 0 Z " fill="#000000" transform="translate(221,97)"/>
</svg>
