<?xml version="1.0" encoding="UTF-8"?>
<svg version="1.1" xmlns="http://www.w3.org/2000/svg" width="372" height="372">
<path d="M0 0 C3.21594209 1.93772131 5.7291105 4.3665717 8.35060143 7.03260732 C9.22430109 7.89694703 9.22430109 7.89694703 10.11565125 8.77874815 C12.04874716 10.69599569 13.96735304 12.62709299 15.88621545 14.55857778 C17.27583158 15.94276908 18.6662962 17.32610903 20.05754113 18.70866323 C23.82293586 22.4558615 27.57561387 26.21555613 31.32556415 29.97820258 C35.25920819 33.92199726 39.20262954 37.85599618 43.14448571 41.79157948 C49.76385139 48.40367309 56.37475126 55.02414313 62.98094201 61.64939809 C70.60562613 69.29583194 78.24458852 76.92777373 85.89116228 84.55231273 C92.46691152 91.10987406 99.03478837 97.67524365 105.596223 104.24712813 C109.5101634 108.16728709 113.42671426 112.08473534 117.35039163 115.9951508 C121.04163332 119.67478603 124.72285406 123.36416841 128.3967669 127.06110311 C129.74210127 128.4116997 131.09080135 129.75895385 132.44319558 131.10248113 C141.01584029 139.62411264 148.70895539 147.68520796 152.35057092 159.54051137 C152.80883264 160.98877309 152.80883264 160.98877309 153.27635217 162.46629262 C157.78775505 178.82301999 155.16805179 194.9965551 147.34275842 209.82957387 C140.96816703 219.97995961 130.99405027 228.43150428 122.56712365 236.87596059 C121.2288601 238.22050328 119.89078142 239.56523 118.55287194 240.91012502 C114.1960004 245.28784125 109.83397115 249.66039958 105.47166467 254.03269887 C103.96332747 255.54508892 102.45502243 257.05751103 100.94674897 258.56996465 C93.86720047 265.66851006 86.78528137 272.76467981 79.7004115 279.85791409 C71.5402363 288.02788568 63.38843282 296.20609432 55.24353284 304.39129364 C48.93014089 310.73484431 42.60909316 317.07070049 36.28226072 323.40084589 C32.51012868 327.17532561 28.74135877 330.95302262 24.98066545 334.73890233 C21.44760799 338.29524556 17.90514073 341.84193871 14.3552897 345.3815167 C13.05702281 346.6792885 11.76215361 347.98046988 10.47102189 349.28534055 C8.70336625 351.0707449 6.92369068 352.84326929 5.14059472 354.61323476 C4.63697661 355.12782211 4.13335851 355.64240947 3.61447924 356.17259037 C-2.1023479 361.78881221 -8.64241365 364.93516287 -16.64942908 365.47801137 C-24.52051583 365.31737695 -30.57902385 362.60314756 -36.23146033 357.15379262 C-42.10234642 350.6202783 -42.42029673 344.68226078 -42.49317908 336.00926137 C-41.43461126 328.47474925 -37.54891922 323.21613308 -32.21739173 318.00918508 C-31.36296121 317.15068636 -31.36296121 317.15068636 -30.49126947 316.27484423 C-28.59679705 314.37615448 -26.6884705 312.49205824 -24.77980018 310.60765004 C-23.41214746 309.2427651 -22.04538457 307.87698805 -20.67944312 306.51039052 C-16.97978606 302.81384914 -13.26802181 299.12968468 -9.55407262 295.44751072 C-5.6677996 291.59002463 -1.79329824 287.720753 2.08235192 283.85259938 C9.42086864 276.5316594 16.76909704 269.22055284 24.12124407 261.91330391 C34.92169828 251.17810212 45.70944796 240.43014504 56.49481797 229.67979074 C57.2852706 228.89190752 58.07572323 228.1040243 58.89012897 227.29226583 C60.46578363 225.72170846 62.0414058 224.15111848 63.6169945 222.58049494 C68.23608594 217.97667527 72.85869736 213.37642662 77.48434877 208.77919829 C80.35605402 205.92447905 83.22583351 203.06782924 86.09522843 200.21078801 C87.42869136 198.88400373 88.76303525 197.55810418 90.09831071 196.23314404 C91.91699152 194.42834785 93.7326002 192.62051572 95.54750085 190.81191945 C96.34593233 190.02194995 96.34593233 190.02194995 97.16049373 189.21602148 C101.43898707 185.01231397 101.43898707 185.01231397 103.60057092 179.54051137 C102.02874835 170.2842229 89.92658979 162.01146806 83.373276 155.51316762 C82.09771311 154.24444571 80.82240574 152.97546685 79.547333 151.70625234 C76.81442582 148.98661168 74.08009968 146.26840864 71.3447516 143.55122304 C67.01658818 139.25103181 62.69395473 134.94531071 58.37246728 130.63841176 C56.88939704 129.16048439 55.40631994 127.68256391 53.92323613 126.20465016 C53.18092319 125.46492278 52.43861025 124.7251954 51.67380297 123.96305203 C41.6215418 113.94677294 31.56452804 103.93530218 21.49729943 93.93406606 C14.69209085 87.17337814 7.89404791 80.40557286 1.10401672 73.62964082 C-2.48444851 70.0492369 -6.07652263 66.47262725 -9.67749572 62.9047997 C-13.06206608 59.55133392 -16.43718217 56.18863646 -19.80536437 52.81871343 C-21.04022949 51.5865382 -22.27851582 50.35778033 -23.52051139 49.13279271 C-31.5225335 41.23560443 -38.41205603 34.33863883 -39.21192908 22.54051137 C-39.05129466 14.66942462 -36.33706527 8.61091661 -30.88771033 2.95848012 C-22.26966958 -4.78551999 -10.14976241 -5.27358229 0 0 Z " fill="#000000" transform="translate(128.96192908287048,4.7719886302948)"/>
</svg>
