<?xml version="1.0" encoding="UTF-8"?>
<svg version="1.1" xmlns="http://www.w3.org/2000/svg" width="372" height="372">
<path d="M0 0 C3.18563474 1.91913197 5.66374438 4.3195452 8.25119841 6.96890569 C8.82353089 7.53852603 9.39586337 8.10814638 9.98553926 8.69502795 C11.88422901 10.58950036 13.76832525 12.49782692 15.65273345 14.40649724 C17.01761838 15.77414996 18.38339544 17.14091285 19.74999297 18.5068543 C23.44653435 22.20651136 27.13069881 25.91827561 30.81287277 29.6322248 C34.67035885 33.51849782 38.53963049 37.39299918 42.4077841 41.26864934 C49.72872409 48.60716606 57.03983065 55.95539445 64.34707958 63.30754149 C75.08228137 74.1079957 85.83023845 84.89574538 96.58059275 95.68111539 C97.36847597 96.47156802 98.15635919 97.26202065 98.96811765 98.07642639 C100.53867503 99.65208105 102.109265 101.22770321 103.67988855 102.80329192 C108.28370822 107.42238336 112.88395687 112.04499478 117.4811852 116.67064619 C120.33590444 119.54235144 123.19255424 122.41213093 126.04959548 125.28152585 C127.37637976 126.61498878 128.70227931 127.94933266 130.02723944 129.28460813 C131.83203563 131.10328894 133.63986776 132.91889762 135.44846404 134.73379827 C136.23843353 135.53222974 136.23843353 135.53222974 137.04436201 136.34679115 C141.24806952 140.62528449 141.24806952 140.62528449 146.71987212 142.78686833 C155.97616059 141.21504576 164.24891543 129.1128872 170.74721587 122.55957341 C172.01593778 121.28401052 173.28491663 120.00870316 174.55413115 118.73363042 C177.27377181 116.00072324 179.99197485 113.2663971 182.70916045 110.53104901 C187.00935168 106.2028856 191.31507278 101.88025215 195.62197173 97.5587647 C197.0998991 96.07569446 198.57781957 94.59261736 200.05573332 93.10953355 C201.1653244 91.99606413 201.1653244 91.99606413 202.29733145 90.86010039 C212.31361055 80.80783922 222.32508131 70.75082546 232.32631743 60.68359685 C239.08700535 53.87838826 245.85481063 47.08034533 252.63074267 40.29031414 C256.21114659 36.70184891 259.78775624 33.10977479 263.35558379 29.5088017 C266.70904956 26.12423134 270.07174702 22.74911525 273.44167006 19.38093305 C274.67384529 18.14606793 275.90260315 16.90778159 277.12759078 15.66578603 C285.02477906 7.66376392 291.92174466 0.77424138 303.71987212 -0.02563167 C311.59095887 0.13500276 317.64946688 2.84923215 323.30190337 8.29858708 C329.17278946 14.8321014 329.49073977 20.77011892 329.56362212 29.44311833 C328.4995208 37.01701595 324.56707528 42.28680986 319.22777617 47.53689885 C318.65154969 48.11936529 318.07532322 48.70183173 317.48163533 49.30194867 C315.5643878 51.23504457 313.6332905 53.15365045 311.70180571 55.07251287 C310.3176144 56.462129 308.93427446 57.85259362 307.55172026 59.24383855 C303.80452199 63.00923328 300.04482736 66.76191128 296.28218091 70.51186156 C292.33838623 74.4455056 288.40438731 78.38892695 284.468804 82.33078313 C277.8567104 88.95014881 271.23624036 95.56104868 264.6109854 102.16723943 C256.96455155 109.79192355 249.33260975 117.43088593 241.70807076 125.07745969 C235.15050942 131.65320894 228.58513984 138.22108578 222.01325536 144.78252041 C218.09309639 148.69646082 214.17564814 152.61301168 210.26523268 156.53668904 C206.58559746 160.22793074 202.89621507 163.90915148 199.19928038 167.58306432 C197.84868379 168.92839868 196.50142964 170.27709877 195.15790236 171.629493 C186.63627085 180.2021377 178.57517553 187.89525281 166.71987212 191.53686833 C165.2716104 191.99513005 165.2716104 191.99513005 163.79409087 192.46264958 C147.43736349 196.97405247 131.26382839 194.3543492 116.43080962 186.52905583 C106.28042387 180.15446445 97.8288792 170.18034769 89.3844229 161.75342107 C88.03988021 160.41515752 86.69515349 159.07707883 85.35025847 157.73916936 C80.97254224 153.38229782 76.59998391 149.02026857 72.22768462 144.65796208 C70.71529457 143.14962489 69.20287245 141.64131984 67.69041884 140.13304639 C60.59187343 133.05349789 53.49570368 125.97157879 46.4024694 118.88670892 C38.23249781 110.72653371 30.05428917 102.57473024 21.86908984 94.42983025 C15.52553918 88.11643831 9.189683 81.79539058 2.8595376 75.46855813 C-0.91494212 71.6964261 -4.69263914 67.92765618 -8.47851884 64.16696286 C-12.03486207 60.63390541 -15.58155522 57.09143815 -19.12113321 53.54158711 C-20.41890501 52.24332023 -21.7200864 50.94845103 -23.02495706 49.65731931 C-24.81036141 47.88966366 -26.5828858 46.10998809 -28.35285127 44.32689214 C-28.86743863 43.82327403 -29.38202598 43.31965592 -29.91220689 42.80077666 C-35.52842872 37.08394951 -38.67477938 30.54388377 -39.21762788 22.53686833 C-39.05699346 14.66578158 -36.34276407 8.60727357 -30.89340913 2.95483708 C-22.27199732 -4.79219219 -10.15238099 -5.27480548 0 0 Z " fill="#000000" transform="translate(40.96762788295746,89.77563166618347)"/>
</svg>
