<?xml version="1.0" encoding="UTF-8"?>
<svg version="1.1" xmlns="http://www.w3.org/2000/svg" width="512" height="512">
<path d="M0 0 C2.57381335 -0.0043531 5.1476254 -0.00953823 7.72143555 -0.01548767 C13.95934272 -0.02816751 20.19720671 -0.03003677 26.43512461 -0.02768741 C31.51187187 -0.02589634 36.58860615 -0.02767068 41.66535187 -0.03191185 C42.39095336 -0.03250704 43.11655486 -0.03310223 43.86414428 -0.03371545 C45.33874764 -0.03492735 46.813351 -0.03614148 48.28795436 -0.03735783 C62.08413016 -0.04820773 75.88028146 -0.04608313 89.67645863 -0.03997298 C102.26023288 -0.03480741 114.84392964 -0.04605432 127.42768857 -0.0650712 C140.38946824 -0.08450718 153.35121136 -0.09269546 166.31300569 -0.08894795 C173.57368411 -0.08704445 180.83429664 -0.08943969 188.09496307 -0.10366249 C194.92739502 -0.11691243 201.7596703 -0.11423856 208.59210205 -0.1012516 C211.08724267 -0.09889959 213.58239437 -0.10157061 216.07752228 -0.10987473 C233.348673 -0.16317192 250.22112143 0.32031282 266.58691406 6.4621582 C267.41328369 6.76331543 268.23965332 7.06447266 269.09106445 7.37475586 C306.31055611 21.31193256 332.33307864 49.56309943 348.95410156 85.19628906 C363.63400356 118.46596374 369.77514299 162.95538106 359.46191406 198.2746582 C359.24760742 199.03584961 359.03330078 199.79704102 358.8125 200.58129883 C355.58814504 211.7984871 351.00341158 222.02989428 345.46191406 232.2746582 C345.11789551 232.92644043 344.77387695 233.57822266 344.41943359 234.24975586 C336.64994015 248.95202806 327.15818464 262.54669378 316.46191406 275.2746582 C316.04538574 275.77465332 315.62885742 276.27464844 315.19970703 276.78979492 C308.09171449 285.30465701 300.63860824 293.44924064 293.01269531 301.5012207 C289.95807594 304.73073839 286.98297728 308.01956811 284.02441406 311.3371582 C280.77734724 314.92434332 277.45991098 318.18427157 273.75488281 321.2902832 C271.93377992 322.86629729 270.18831437 324.46965906 268.45019531 326.1340332 C254.94210891 339.04640668 239.89506782 349.78761587 224.72802734 360.6496582 C220.96532554 363.34784213 217.21425659 366.06209688 213.46191406 368.7746582 C211.96325045 369.85673696 210.46455252 370.93876819 208.96582031 372.02075195 C205.95098888 374.19794843 202.93816712 376.37788737 199.92675781 378.55981445 C191.93835395 384.3445207 183.92075587 390.08262611 175.85400391 395.75756836 C168.43244953 400.98572869 161.07926352 406.3071812 153.72802734 411.63354492 C149.97546601 414.35113998 146.2184591 417.06257408 142.46191406 419.7746582 C140.98013045 420.844953 139.49835965 421.91526556 138.01660156 422.9855957 C134.83503209 425.28347283 131.65260225 427.58015322 128.46972656 429.8762207 C127.65246094 430.4659668 126.83519531 431.05571289 125.99316406 431.66333008 C124.42827752 432.79253798 122.8631845 433.92145981 121.29785156 435.05004883 C120.59144531 435.55987305 119.88503906 436.06969727 119.15722656 436.5949707 C118.5386377 437.04114746 117.92004883 437.48732422 117.28271484 437.94702148 C115.97916099 438.89750765 114.71518695 439.90321947 113.48095703 440.94213867 C111.46191406 442.2746582 111.46191406 442.2746582 107.46191406 442.2746582 C107.46191406 403.9946582 107.46191406 365.7146582 107.46191406 326.2746582 C104.49191406 326.6046582 101.52191406 326.9346582 98.46191406 327.2746582 C96.5645945 327.35587969 94.66536551 327.40478681 92.76631165 327.40837097 C91.7308168 327.41263596 90.69532196 327.41690094 89.62844849 327.42129517 C88.52330902 327.42084198 87.41816956 327.42038879 86.27954102 327.41992188 C85.09127213 327.42328049 83.90300323 327.4266391 82.6787262 327.43009949 C79.44287504 327.43793031 76.20706256 327.44127466 72.97120309 327.44191527 C70.94166243 327.44262996 68.91212835 327.44477217 66.88258934 327.44741249 C59.77955071 327.45664386 52.67653075 327.4607503 45.57348633 327.45996094 C38.98942322 327.45936127 32.40544232 327.46989705 25.82139999 327.4857046 C20.13866494 327.49885395 14.45595652 327.50414173 8.77320641 327.50350553 C5.39255542 327.50325264 2.01197755 327.50598663 -1.36865807 327.51668358 C-38.51080971 327.61378457 -69.65566735 319.7239603 -97.16699219 293.52075195 C-99.20471262 291.59045665 -101.29044293 289.84331608 -103.47558594 288.0871582 C-129.21162583 265.62757513 -144.6849503 226.51924961 -148.53808594 193.2746582 C-148.89019717 185.73215456 -148.8514016 178.17059356 -148.88818359 170.62133789 C-148.90457018 168.17234683 -148.93162341 165.72340001 -148.97021484 163.2746582 C-149.32809802 140.37013505 -146.31262269 118.87059361 -138.53808594 97.2746582 C-138.09851563 96.05133789 -137.65894531 94.82801758 -137.20605469 93.56762695 C-129.71217409 73.85232125 -118.94277589 56.83966027 -104.53027344 41.42700195 C-102.70742879 39.45761489 -101.0372199 37.42237481 -99.35058594 35.3371582 C-90.65087379 25.41467546 -79.14288026 18.29757402 -67.53808594 12.2746582 C-66.63832031 11.80415039 -65.73855469 11.33364258 -64.81152344 10.84887695 C-59.44721829 8.23154982 -53.92294524 6.32497761 -48.22558594 4.5871582 C-47.57485107 4.38453369 -46.92411621 4.18190918 -46.25366211 3.97314453 C-31.08129524 -0.43031392 -15.63973887 -0.01752089 0 0 Z M-80.78808594 64.5246582 C-107.03680395 94.86129132 -118.99849474 136.55794679 -116.53808594 176.2746582 C-113.4325607 212.11915427 -97.41295423 250.25721967 -69.66308594 273.5871582 C-49.29308016 289.03577059 -26.50864274 294.45311684 -1.30957031 294.38818359 C0.22853595 294.38790118 1.76664235 294.38806051 3.30474854 294.3886261 C7.46117896 294.38891196 11.61758029 294.3830494 15.77400398 294.37605214 C20.12484717 294.36978341 24.47569108 294.36921202 28.82653809 294.36802673 C37.05694887 294.36492378 45.2873463 294.35672438 53.51775122 294.34667724 C64.64553354 294.33338924 75.77331953 294.32800783 86.90110779 294.32217503 C104.42138654 294.31278377 121.94163712 294.29285794 139.46191406 294.2746582 C139.46191406 321.9946582 139.46191406 349.7146582 139.46191406 378.2746582 C146.13621944 375.00850213 146.13621944 375.00850213 152.02050781 371.0246582 C152.8095752 370.42250488 153.59864258 369.82035156 154.41162109 369.19995117 C155.23259277 368.56460449 156.05356445 367.92925781 156.89941406 367.2746582 C158.67529991 365.92118066 160.45266718 364.56964487 162.23144531 363.2199707 C163.55329834 362.21691895 163.55329834 362.21691895 164.90185547 361.19360352 C168.57867774 358.4375647 172.32128537 355.78248987 176.08691406 353.1496582 C183.40762525 348.02567543 190.66457339 342.81989542 197.89941406 337.57543945 C200.99515666 335.33169325 204.09990777 333.10125767 207.21191406 330.88012695 C215.52905471 324.93476174 223.67180178 318.90647391 231.46191406 312.2746582 C232.52150157 311.38887258 233.58141537 310.50347718 234.64160156 309.6184082 C244.2591517 301.53673534 253.41500413 292.98682153 262.46191406 284.2746582 C263.08050293 283.67943359 263.6990918 283.08420898 264.33642578 282.47094727 C270.71542187 276.30043801 276.71662128 270.03510118 282.23144531 263.0637207 C284.22708245 260.56830053 286.29174268 258.15162372 288.39160156 255.74389648 C314.81330203 225.28243744 334.15550257 189.43315495 331.46191406 148.2746582 C328.19347416 121.0296481 318.67693937 93.82223821 301.46191406 72.2746582 C301.01557617 71.71020996 300.56923828 71.14576172 300.109375 70.56420898 C283.85577015 50.18077917 263.10070296 36.68627017 236.76718378 33.48623514 C232.5883745 33.10270532 228.41290799 33.13030085 224.21942139 33.13421631 C223.21397632 33.13124519 222.20853125 33.12827406 221.17261815 33.12521291 C217.81689314 33.11656917 214.46120399 33.1150213 211.10546875 33.11352539 C208.69341964 33.10889398 206.28137126 33.10386889 203.86932373 33.09848022 C197.32320964 33.08538125 190.77710296 33.07887809 184.23097897 33.07446957 C180.13416097 33.07169844 176.03734529 33.06745939 171.94052887 33.06296539 C160.57220483 33.05077547 149.20388265 33.04047744 137.83555222 33.0370903 C137.10889684 33.03687074 136.38224146 33.03665117 135.63356622 33.03642495 C134.9052731 33.03620667 134.17697999 33.03598839 133.42661738 33.0357635 C131.95107826 33.03532005 130.47553913 33.03487349 129 33.03442383 C128.26809776 33.0342024 127.53619551 33.03398097 126.78211442 33.03375283 C114.94942927 33.02981332 103.11680602 33.01238403 91.28414473 32.98906431 C79.10225877 32.96525261 66.92040373 32.95288392 54.73849416 32.95172238 C47.91248911 32.95081081 41.08656461 32.94519101 34.26058197 32.92690277 C27.82876822 32.91030723 21.39710628 32.90832186 14.96527863 32.91704178 C12.61933482 32.91780617 10.27338247 32.91354956 7.92745972 32.90358353 C-26.13969024 32.76748083 -56.41729881 38.89528582 -80.78808594 64.5246582 Z " fill="#FFFFFF" transform="translate(148.5380859375,33.725341796875)"/>
</svg>
