<?xml version="1.0" encoding="UTF-8"?>
<svg version="1.1" xmlns="http://www.w3.org/2000/svg" width="200" height="200">
<path d="M0 0 C3.64684141 3.02449882 6.98241875 6.29968311 10.29052734 9.68798828 C11.28826172 10.65478516 11.28826172 10.65478516 12.30615234 11.64111328 C26.13949081 25.97295043 29.93378999 44.92685877 29.75927734 64.12597656 C29.17558841 85.06277699 21.07400837 101.25441213 6.29052734 115.68798828 C5.32373047 116.68572266 5.32373047 116.68572266 4.33740234 117.70361328 C-9.99443481 131.53695175 -28.94834314 135.33125093 -48.14746094 135.15673828 C-69.08426137 134.57304935 -85.27589651 126.47146931 -99.70947266 111.68798828 C-100.37462891 111.04345703 -101.03978516 110.39892578 -101.72509766 109.73486328 C-115.55843612 95.40302613 -119.3527353 76.4491178 -119.17822266 57.25 C-118.59453372 36.31319957 -110.49295368 20.12156443 -95.70947266 5.68798828 C-95.06494141 5.02283203 -94.42041016 4.35767578 -93.75634766 3.67236328 C-69.6465138 -19.59886766 -26.06450424 -20.00437672 0 0 Z M-84.70947266 24.68798828 C-95.81591909 37.78433971 -98.99618751 52.98226023 -97.70947266 69.68798828 C-96.09538479 78.86689762 -92.14749169 86.21221932 -86.70947266 93.68798828 C-86.06945312 94.63931641 -86.06945312 94.63931641 -85.41650391 95.60986328 C-78.32435742 105.12425056 -65.17452366 111.78135535 -53.70947266 113.68798828 C-36.16860694 115.46884861 -22.64343125 111.13888015 -8.68212891 100.34814453 C0.96526863 91.71492808 7.7295112 78.80220134 8.52880859 65.81689453 C8.93938033 48.99454999 4.86451224 35.16284388 -6.74462891 22.56298828 C-18.81780437 11.04186657 -32.7853223 7.14583345 -49.05322266 7.41064453 C-62.77621502 7.97219206 -75.31988696 14.86804658 -84.70947266 24.68798828 Z " fill="#FED1E6" transform="translate(144.70947265625,39.31201171875)"/>
</svg>
