<?xml version="1.0" encoding="UTF-8"?>
<svg version="1.1" xmlns="http://www.w3.org/2000/svg" width="512" height="512">
<path d="M0 0 C6.63381233 1.10563539 10.67478376 7.6098473 14.8125 12.46875 C16.97526416 14.97213517 19.14434627 17.47003263 21.3125 19.96875 C22.45838107 21.29162532 23.60421561 22.61454095 24.75 23.9375 C27.45051842 27.0534828 30.16277151 30.15886033 32.8828125 33.2578125 C34.52891709 35.14383516 36.16816928 37.03535471 37.8046875 38.9296875 C45.02275368 47.28955349 45.02275368 47.28955349 52.375 55.53125 C56.46626746 60.04290458 60.42039412 64.66303647 64.37133789 69.29711914 C67.30555969 72.7316568 70.27571209 76.12388216 73.3125 79.46875 C76.98433917 83.51649958 80.56795873 87.63280746 84.125 91.78125 C84.62902344 92.36841797 85.13304687 92.95558594 85.65234375 93.56054688 C94.99745012 104.49232238 94.99745012 104.49232238 94.8125 108.46875 C90.5955671 116.49680217 82.27400343 123.50967308 74.8125 128.46875 C71.375 128.96875 71.375 128.96875 67.8125 128.46875 C65.375 126.46875 65.375 126.46875 62.8125 123.46875 C61.56814153 122.25460774 60.31756078 121.04682601 59.0625 119.84375 C55.15258782 115.93383782 51.68549903 111.75549836 48.22265625 107.44921875 C45.67018392 104.29275783 43.06483634 101.18781782 40.4375 98.09375 C39.98060791 97.55451904 39.52371582 97.01528809 39.05297852 96.4597168 C36.65682821 93.63384264 34.25337498 90.81439138 31.84375 88 C23.72671737 78.49614446 23.72671737 78.49614446 20.75 74.21875 C19.09932831 71.41482905 19.09932831 71.41482905 16.8125 70.46875 C16.91982337 95.46014585 17.03259978 120.45151197 17.15183926 145.44285393 C17.20707952 157.04717905 17.26054621 168.65150724 17.30981445 180.25585938 C17.35276917 190.37209301 17.39907523 200.48830485 17.44937855 210.6045047 C17.47588877 215.95920815 17.50073914 221.31390753 17.52157402 226.66863632 C17.541255 231.71318182 17.56543192 236.75768618 17.59299088 241.8021946 C17.60230095 243.64920232 17.6099975 245.49621904 17.61591911 247.34324074 C17.64489531 256.11420896 17.70148501 264.75302234 18.8125 273.46875 C28.34068257 274.60525478 37.83588217 274.62070077 47.41357422 274.62646484 C49.17060979 274.63114179 50.92764417 274.63628679 52.68467712 274.64186096 C56.44737507 274.65307475 60.21006541 274.66154055 63.97277451 274.66798019 C69.92313281 274.67871894 75.87343548 274.69897485 81.82376099 274.72109985 C98.73664832 274.78284137 115.64953021 274.83712433 132.5625 274.87011719 C141.91923258 274.88844898 151.27586977 274.91735517 160.63253224 274.9581219 C165.57837825 274.97919338 170.52410414 274.99464962 175.46999741 274.99692917 C180.11421766 274.99907281 184.75818665 275.01491292 189.4023304 275.04131889 C191.10631106 275.0485206 192.81032214 275.05060864 194.51431465 275.04721642 C196.83974661 275.04332609 199.16437421 275.05776052 201.48971558 275.07675171 C202.79082716 275.08006186 204.09193874 275.083372 205.43247795 275.08678246 C209.0486579 275.49543759 210.96990371 276.22452369 213.8125 278.46875 C214.41186523 281.13256836 214.41186523 281.13256836 214.37109375 284.30859375 C214.36045898 286.0265918 214.36045898 286.0265918 214.34960938 287.77929688 C214.31673828 288.97619141 214.28386719 290.17308594 214.25 291.40625 C214.24129883 293.19579102 214.24129883 293.19579102 214.23242188 295.02148438 C214.08332609 305.63114015 214.08332609 305.63114015 211.8125 308.46875 C207.336372 309.48792475 203.00534775 309.59651083 198.4276123 309.60246277 C197.70549136 309.60472833 196.98337041 309.60699388 196.23936701 309.60932809 C193.83078548 309.61563466 191.42226072 309.61484086 189.01367188 309.61401367 C187.2818291 309.61700739 185.54998699 309.62041041 183.81814575 309.62419128 C179.11936021 309.63301729 174.42059288 309.63536891 169.72179985 309.63600707 C166.78119086 309.63671876 163.84058648 309.63885543 160.89997864 309.64150429 C150.62634997 309.65075552 140.35273426 309.65483976 130.07910156 309.65405273 C120.52825324 309.65345312 110.97746162 309.66398269 101.42662764 309.6797964 C93.20894339 309.69291395 84.99127756 309.69823481 76.77358294 309.69759732 C71.87376951 309.69734343 66.97400641 309.70013416 62.07420349 309.71077538 C57.45800572 309.72052662 52.84190561 309.72048786 48.22570419 309.71325874 C46.54161815 309.71222133 44.8575258 309.71452496 43.17345047 309.7206192 C27.09147549 309.77499417 9.68635787 309.52181642 -3.6015625 299.0859375 C-18.07947794 284.32274294 -17.34113596 263.86044326 -17.30102539 244.70849609 C-17.30074297 242.81541953 -17.30090233 240.92234286 -17.3014679 239.02926636 C-17.30175372 233.91430949 -17.29589179 228.79937627 -17.28889394 223.68442488 C-17.28262456 218.32995188 -17.28205377 212.97547829 -17.28086853 207.6210022 C-17.27776576 197.49236337 -17.26956662 187.3637354 -17.25951904 177.23510134 C-17.24832511 165.69941929 -17.2428392 154.1637367 -17.23782361 142.62805057 C-17.2273831 118.90827771 -17.20980413 95.18851446 -17.1875 71.46875 C-18.45474923 72.55299881 -19.71845803 73.64138625 -20.98071289 74.73144531 C-21.68482803 75.33708313 -22.38894318 75.94272095 -23.11439514 76.56671143 C-26.31451093 79.50276343 -28.95348196 82.80643621 -31.625 86.21875 C-32.75638871 87.63681586 -33.88789946 89.05478436 -35.01953125 90.47265625 C-35.56174316 91.15730957 -36.10395508 91.84196289 -36.66259766 92.54736328 C-42.348317 99.71140607 -48.20095384 106.74052861 -54.16357422 113.67529297 C-57.74016841 117.85616918 -61.00479283 122.21433988 -64.140625 126.73828125 C-66.1875 128.46875 -66.1875 128.46875 -69.5859375 128.98046875 C-73.81527071 128.37955481 -75.39651664 127.28295743 -78.5625 124.46875 C-79.49449219 123.64503906 -80.42648438 122.82132812 -81.38671875 121.97265625 C-82.31097656 121.14636719 -83.23523438 120.32007813 -84.1875 119.46875 C-85.08082031 118.77652344 -85.97414063 118.08429688 -86.89453125 117.37109375 C-92.6479593 112.81365389 -92.6479593 112.81365389 -93.98828125 109.47265625 C-94.31002882 106.23625424 -93.70195383 104.24593713 -91.91015625 101.5390625 C-90.09364526 99.41053904 -88.16607626 97.44732626 -86.1875 95.46875 C-84.71977828 93.87316868 -83.26180903 92.26857445 -81.8125 90.65625 C-81.05066406 89.81320313 -80.28882812 88.97015625 -79.50390625 88.1015625 C-77.18212928 85.46264568 -74.95841681 82.76548034 -72.75 80.03125 C-68.89329235 75.26234715 -64.82290354 70.74360656 -60.66796875 66.234375 C-58.18285768 63.46357399 -55.83305667 60.61823638 -53.5 57.71875 C-51.01643671 54.6393055 -48.5332756 51.71639541 -45.6875 48.96875 C-42.88224298 46.25978326 -40.44120468 43.38539461 -38 40.34375 C-33.10544693 34.26111738 -27.82283189 28.5960222 -22.50341797 22.88916016 C-20.85065522 21.10515762 -19.22941736 19.29632373 -17.625 17.46875 C-17.0990625 16.870625 -16.573125 16.2725 -16.03125 15.65625 C-14.49023282 13.82792453 -13.00686151 11.97443134 -11.53125 10.09375 C-10.81304077 9.19849609 -10.81304077 9.19849609 -10.08032227 8.28515625 C-9.12809435 7.09666846 -8.19033853 5.89640268 -7.26928711 4.68359375 C-4.93698477 1.79837675 -3.73335884 0.54902336 0 0 Z " fill="#FFFFFF" transform="translate(94.1875,51.53125)"/>
<path d="M0 0 C1.34308113 -0.02364942 2.68681664 -0.01943389 4.02986336 0.00609493 C4.77054436 0.00041168 5.51122536 -0.00527158 6.27435124 -0.01112705 C8.76423236 -0.02407845 11.25250305 -0.00119933 13.74229622 0.02146053 C15.52458221 0.01959719 17.30686706 0.01556209 19.08914375 0.0095129 C23.93907984 -0.00048974 28.78843447 0.02076156 33.63828611 0.04799294 C38.71844657 0.07180288 43.79859504 0.06887794 48.87880135 0.06929684 C57.42177865 0.07393105 65.96453376 0.09760123 74.50743294 0.13376522 C84.36101801 0.17536883 94.2144024 0.19307211 104.06807029 0.19638497 C114.57450891 0.19999857 125.08087599 0.2189077 135.58728456 0.24350524 C138.60337065 0.2497104 141.61945127 0.25336174 144.63554192 0.25653934 C149.39783007 0.2624847 154.15997776 0.27892058 158.92220688 0.3031435 C160.66152483 0.31052322 162.4008604 0.31465149 164.14019394 0.31512356 C179.76868137 0.32347003 197.21324052 0.36403153 209.9615345 10.73020077 C224.50526104 25.61215351 224.11818869 46.43505938 224.03624153 65.83518124 C224.03567617 67.72884776 224.03599641 69.62251472 224.03712654 71.51618099 C224.03769619 76.61440213 224.02600525 81.71252758 224.01197863 86.81072664 C223.99940605 92.15449528 223.99829565 97.49826654 223.99592781 102.84204769 C223.98973212 112.94223629 223.97334735 123.04238117 223.95322883 133.14255059 C223.9308101 144.64930073 223.91986143 156.15605305 223.90983796 167.66281962 C223.88897929 191.3155125 223.85384076 214.96816667 223.80919075 238.62082577 C225.07643998 237.53657696 226.34014878 236.44818952 227.60240364 235.35813046 C228.30651878 234.75249264 229.01063393 234.14685482 229.73608589 233.52286434 C232.93620781 230.58680672 235.57513367 227.28311954 238.24669075 223.87082577 C239.37419256 222.45798366 240.5017971 221.04522353 241.62950325 219.63254452 C242.17123177 218.94853573 242.71296028 218.26452694 243.27110481 217.55979061 C247.98696028 211.61481853 252.76323265 205.73418961 257.87169075 200.12082577 C261.60878029 195.98013055 264.84389006 191.56533101 268.047472 187.00363827 C271.8830718 181.81579818 271.8830718 181.81579818 276.37169075 180.87082577 C282.71485097 181.08070975 286.59269248 186.42489579 290.80919075 190.62082577 C292.13064352 191.75975744 293.46236971 192.88700844 294.80919075 193.99582577 C298.1767119 196.94240678 299.64729068 198.43965917 300.2584095 202.89816952 C299.69445008 207.57167672 297.73076706 209.87840213 294.62169075 213.18332577 C294.08503792 213.78120907 293.54838509 214.37909237 292.99547005 214.99509335 C291.28580637 216.88891654 289.55161278 218.75713271 287.80919075 220.62082577 C286.96807747 221.52623104 286.96807747 221.52623104 286.109972 222.44992733 C283.90018845 224.82840648 281.68848095 227.20493612 279.46568489 229.57126522 C275.41095646 233.9056301 271.63030525 238.40979964 267.91856575 243.04270077 C265.78933929 245.64508866 263.57469718 248.13658079 261.30919075 250.62082577 C258.23265403 253.99543525 255.29800858 257.43898441 252.43419075 260.99582577 C248.75583191 265.54571214 244.8892175 269.85113073 240.90440559 274.12888241 C237.81869767 277.46190155 234.90768864 280.89208094 232.05919075 284.43332577 C229.09890334 288.11269008 226.03878352 291.4560421 222.641222 294.72629452 C219.43595843 298.04090609 216.60857959 301.66978118 213.7271595 305.26535702 C211.80919075 307.62082577 211.80919075 307.62082577 209.80919075 309.62082577 C205.74848382 309.54420866 203.5057821 309.21024922 200.37169075 306.55832577 C199.52606575 305.58895077 198.68044075 304.61957577 197.80919075 303.62082577 C196.56345851 302.40809306 195.31301546 301.20018993 194.05919075 299.99582577 C190.13144334 296.07541994 186.69117497 291.85829668 183.219347 287.53488827 C180.71900329 284.51178226 178.10551537 281.61654518 175.43419075 278.74582577 C171.07446917 274.05685239 166.90330972 269.24131811 162.79185677 264.33396053 C159.34737049 260.23115918 155.79145926 256.24532511 152.188097 252.28098202 C149.34543255 249.10223901 146.57539334 245.86606956 143.80919075 242.62082577 C140.35863726 238.57346654 136.88472136 234.55909136 133.30919075 230.62082577 C129.63735158 226.57307619 126.05373202 222.45676831 122.49669075 218.30832577 C121.99266731 217.7211578 121.48864388 217.13398983 120.969347 216.52902889 C120.01509895 215.41276279 119.06425475 214.29357537 118.11729622 213.17111874 C116.91558467 211.74691786 115.7008859 210.33370198 114.484972 208.92160702 C112.10566261 205.65490951 112.24540647 203.56731571 112.80919075 199.62082577 C115.48345653 195.77309463 118.59699833 192.96896812 122.24669075 190.05832577 C123.17352669 189.31453671 124.10036263 188.57074764 125.0552845 187.80441952 C126.41846809 186.72354061 126.41846809 186.72354061 127.80919075 185.62082577 C128.68704231 184.87961483 129.56489388 184.13840389 130.469347 183.37473202 C132.80919075 181.62082577 132.80919075 181.62082577 135.80919075 181.12082577 C142.57774691 182.24891846 146.60134004 188.63784467 150.80919075 193.62082577 C151.659972 194.61856014 152.51075325 195.61629452 153.38731575 196.64426327 C157.70716851 201.71848522 161.98726424 206.81910207 166.18419075 211.99582577 C170.42478822 217.21797202 174.83220886 222.2852777 179.29307747 227.31955624 C181.74921444 230.11788645 184.05084424 232.87527705 186.0709095 236.00754452 C187.54771802 238.69718848 187.54771802 238.69718848 189.80919075 239.62082577 C189.70186738 214.62942992 189.58909097 189.6380638 189.46985149 164.64672184 C189.41461123 153.04239672 189.36114455 141.43806853 189.3118763 129.83371639 C189.26892158 119.71748276 189.22261552 109.60127092 189.1723122 99.48507106 C189.14580198 94.13036761 189.12095161 88.77566823 189.10011673 83.42093945 C189.08043575 78.37639395 189.05625883 73.33188959 189.02869987 68.28738117 C189.0193898 66.44037344 189.01169325 64.59335673 189.00577164 62.74633503 C188.97679544 53.97536681 188.92020574 45.33655342 187.80919075 36.62082577 C178.31086175 35.48992369 168.84740808 35.46889007 159.29991341 35.46311092 C157.55272992 35.4584339 155.80554763 35.4532889 154.05836678 35.44771481 C150.31694976 35.43650156 146.57554039 35.4280355 142.83411217 35.42159557 C136.91735864 35.41085627 131.00066105 35.39060023 125.08394051 35.36847591 C108.26663437 35.30673622 91.44933372 35.2524513 74.63194466 35.21945858 C65.32794948 35.20112659 56.02405023 35.17222023 46.72012556 35.13145387 C41.80222509 35.11038282 36.88444541 35.09492621 31.96649742 35.0926466 C27.34854138 35.09050291 22.73083802 35.07466228 18.11295891 35.04825687 C16.41865367 35.04105538 14.72431784 35.03896702 13.03000069 35.04235935 C10.71770426 35.0462499 8.40621663 35.03181457 6.09401131 35.01282406 C4.15340545 35.00785884 4.15340545 35.00785884 2.17359543 35.00279331 C-1.4334704 34.59327597 -3.35281709 33.85644706 -6.19080925 31.62082577 C-6.80604362 28.97287655 -6.80604362 28.97287655 -6.78455925 25.81613827 C-6.78198112 24.67531796 -6.779403 23.53449764 -6.77674675 22.35910702 C-6.74838737 21.16672421 -6.720028 19.97434139 -6.69080925 18.74582577 C-6.69338737 17.56117733 -6.6959655 16.37652889 -6.69862175 15.15598202 C-6.54210422 1.27287674 -6.54210422 1.27287674 0 0 Z " fill="#FFFFFF" transform="translate(211.19080924987793,32.37917423248291)"/>
</svg>
