<?xml version="1.0" encoding="UTF-8"?>
<svg version="1.1" xmlns="http://www.w3.org/2000/svg" width="512" height="512">
<path d="M0 0 C1.12668091 -0.00671722 2.25336182 -0.01343445 3.41418457 -0.02035522 C7.11389664 -0.03924657 10.81342638 -0.04325523 14.51318359 -0.04541016 C17.10615104 -0.05184511 19.69911778 -0.05857398 22.29208374 -0.06558228 C27.7204589 -0.07753358 33.14876275 -0.08135156 38.57714844 -0.08007812 C44.81082453 -0.07887958 51.04415283 -0.09993742 57.27774107 -0.13156545 C63.31869321 -0.16110045 69.35945985 -0.16804793 75.40049362 -0.16685867 C77.94950147 -0.16920231 80.49851253 -0.17795516 83.04747391 -0.19352341 C104.00663711 -0.30953501 122.73911151 0.41595723 139.03662109 15.35302734 C147.25642534 24.14074534 154.3595403 36.24483523 154.26986694 48.59865761 C153.9574671 54.33522914 153.34233705 60.04785198 152.78074646 65.76428604 C146.6692334 132.53831918 156.81694967 180.80870122 188.34912109 239.66552734 C188.74308531 240.40171421 189.13704953 241.13790108 189.54295206 241.89639664 C198.41258783 258.4457657 207.53713509 274.84432751 217.109231 290.99860382 C217.66313731 291.93833794 218.21704363 292.87807205 218.78773499 293.84628296 C219.27314286 294.66199453 219.75855074 295.47770611 220.25866795 296.31813622 C221.28662109 298.29052734 221.28662109 298.29052734 221.28662109 300.29052734 C171.12662109 300.29052734 120.96662109 300.29052734 69.28662109 300.29052734 C70.1111505 333.61634456 70.1111505 333.61634456 71.1784668 366.93457031 C71.84755154 399.18817563 65.77356098 422.1022405 48.28662109 449.29052734 C47.62662109 449.29052734 46.96662109 449.29052734 46.28662109 449.29052734 C25.164011 416.44958515 22.55567041 389.77392575 23.97412109 351.16552734 C24.40724609 334.37677734 24.84037109 317.58802734 25.28662109 300.29052734 C-24.87337891 300.29052734 -75.03337891 300.29052734 -126.71337891 300.29052734 C-125.29556177 296.03707594 -124.25620734 293.19977535 -122.0499115 289.51712036 C-121.51008479 288.60554546 -120.97025808 287.69397057 -120.41407299 286.75477219 C-119.824404 285.76770908 -119.23473501 284.78064598 -118.62719727 283.76367188 C-109.64488467 268.48985264 -101.02793274 253.02926313 -92.65087891 237.41552734 C-92.27191357 236.70995256 -91.89294824 236.00437778 -91.5024991 235.27742195 C-60.3511976 177.14085846 -52.34902021 128.46765367 -58.57196045 62.67666626 C-60.09428361 46.40496067 -58.94116094 34.04023491 -48.67431641 20.62646484 C-35.55372082 5.28046788 -19.71454337 -0.01714358 0 0 Z " fill="#536471" transform="translate(208.71337890625,41.70947265625)"/>
</svg>
