<?xml version="1.0" encoding="UTF-8"?>
<svg version="1.1" xmlns="http://www.w3.org/2000/svg" width="512" height="512">
<path d="M0 0 C2.65116536 -0.00735005 5.30230554 -0.01584808 7.95346069 -0.02566528 C14.3767307 -0.04659451 20.79991021 -0.05126738 27.2232103 -0.0494774 C32.4510564 -0.04816344 37.67887455 -0.05200599 42.90671539 -0.05940247 C44.41962282 -0.06150194 45.93253024 -0.06359954 47.44543767 -0.06569529 C48.19874267 -0.06673881 48.95204766 -0.06778234 49.72818008 -0.06885749 C63.93643326 -0.08770936 78.14463468 -0.08672521 92.35289517 -0.07988816 C105.31103926 -0.07431622 118.26898543 -0.09513226 131.2270833 -0.12824863 C144.57650336 -0.16209664 157.92582892 -0.17714021 171.27529263 -0.1725316 C178.75233493 -0.17029813 186.22919434 -0.17536429 193.70619965 -0.20042419 C200.07230268 -0.22158161 206.43812256 -0.22488797 212.80423781 -0.2061246 C216.04328884 -0.1970545 219.28171259 -0.19833496 222.52074051 -0.21648026 C237.33552089 -0.29368871 250.54480818 0.65132696 264.62988281 5.41992188 C266.30617075 5.97235943 266.30617075 5.97235943 268.01632309 6.53595734 C270.58542566 7.41084232 273.10698518 8.3577736 275.62988281 9.35742188 C276.95354858 9.87598755 276.95354858 9.87598755 278.30395508 10.4050293 C308.94397449 22.62649874 331.89875415 48.44065237 346.62988281 77.41992188 C347.15557861 78.42732422 347.15557861 78.42732422 347.69189453 79.45507812 C354.03253125 91.77970901 357.20439493 104.4694963 359.93310547 118.00683594 C360.61977248 121.37039755 361.36142489 124.71818378 362.11035156 128.06835938 C370.14964065 165.50353157 364.56443995 198.09013561 346.62988281 231.41992188 C345.74236328 233.10408203 345.74236328 233.10408203 344.83691406 234.82226562 C333.45086398 255.62790511 318.40753739 274.35437269 302.22753906 291.61132812 C300.21729881 293.78480593 298.27257504 295.98304752 296.34082031 298.22460938 C292.47259119 302.66362092 288.36573499 306.83160806 284.19238281 310.98242188 C283.48017578 311.69849609 282.76796875 312.41457031 282.03417969 313.15234375 C277.94628394 317.23281371 273.7588001 321.1331801 269.38305664 324.90307617 C267.26960859 326.73163107 265.2347852 328.63765008 263.19238281 330.54492188 C251.26796274 341.28600255 237.92670517 350.4628367 224.89599609 359.79492188 C221.13329451 362.49310564 217.38219253 365.20731549 213.62988281 367.91992188 C212.13513834 368.99941431 210.64034662 370.07884133 209.14550781 371.15820312 C206.09270164 373.3629339 203.04071102 375.56878771 199.98925781 377.77539062 C192.65654448 383.07674418 185.31626438 388.36647625 177.94824219 393.61865234 C170.92423386 398.62978057 163.93609774 403.69061658 156.94433594 408.74658203 C153.17395263 411.47255325 149.40185695 414.19615257 145.62988281 416.91992188 C141.00051987 420.26304023 136.37143456 423.60654122 131.74316406 426.95117188 C130.93943359 427.53189453 130.13570313 428.11261719 129.30761719 428.7109375 C127.78146475 429.8136488 126.25541546 430.91650286 124.72949219 432.01953125 C123.35315797 433.01390408 121.97576612 434.00681515 120.59716797 434.99804688 C119.26803133 435.95869366 117.94489605 436.92769065 116.62744141 437.90429688 C111.84406821 441.41992188 111.84406821 441.41992188 109.62988281 441.41992188 C109.62988281 403.13992188 109.62988281 364.85992187 109.62988281 325.41992188 C95.16466797 325.47212891 95.16466797 325.47212891 80.40722656 325.52539062 C74.27766683 325.54072921 68.14812113 325.55529645 62.01855469 325.56640625 C52.30130222 325.58416086 42.58412817 325.60495672 32.86694336 325.64624023 C25.78785896 325.67630123 18.7088386 325.69553418 11.62969214 325.70218736 C7.88720708 325.70607158 4.14490509 325.71509029 0.40247917 325.73711205 C-3.13271607 325.75774236 -6.66765593 325.76370324 -10.20290565 325.75924492 C-12.09299638 325.76044117 -13.98306042 325.77644245 -15.87307739 325.79318237 C-47.44936507 325.68139993 -74.90405225 310.62134077 -97.37011719 289.41992188 C-98.10746094 288.74703125 -98.84480469 288.07414062 -99.60449219 287.38085938 C-128.2663236 260.24359346 -145.35190282 216.25198632 -146.54711914 177.2590332 C-146.5731347 175.84009797 -146.59336623 174.42104721 -146.60839844 173.00195312 C-146.61814697 172.2305751 -146.62789551 171.45919708 -146.63793945 170.66444397 C-146.80725942 153.80768866 -146.46160838 137.86539741 -142.37011719 121.41992188 C-141.97802187 119.68617154 -141.58874145 117.95178241 -141.20214844 116.21679688 C-134.38341341 86.4341055 -120.53431188 60.52894668 -99.37011719 38.41992188 C-98.62761719 37.61425781 -97.88511719 36.80859375 -97.12011719 35.97851562 C-84.14025937 22.33685584 -68.16597859 12.17319352 -50.37011719 6.10742188 C-49.69553467 5.87692139 -49.02095215 5.6464209 -48.32592773 5.40893555 C-46.0226245 4.67305678 -43.706699 4.04293487 -41.37011719 3.41992188 C-40.43613476 3.16555611 -39.50215233 2.91119034 -38.5398674 2.64911652 C-25.79801504 -0.36066171 -13.02731816 -0.01713029 0 0 Z M-78.28027344 63.02148438 C-105.51724908 94.28036858 -116.38847063 134.48304568 -114.37011719 175.41992188 C-113.33018511 188.52573253 -109.06985505 201.19743723 -105.21044922 213.68945312 C-104.48305285 216.052963 -103.77976702 218.42170207 -103.08496094 220.79492188 C-95.25436121 246.27755149 -76.05296181 270.04351644 -52.51782227 282.75634766 C-44.39732651 286.92588163 -36.29023417 289.51520345 -27.37011719 291.41992188 C-26.71165865 291.5870915 -26.05320011 291.75426113 -25.37478828 291.92649651 C-17.49969225 293.77444121 -9.6749427 293.6877952 -1.63916016 293.64697266 C-0.07120267 293.64640754 1.49675534 293.64672705 3.06471252 293.64785767 C7.29337147 293.64842828 11.52191549 293.63672149 15.75054789 293.62270975 C20.18011794 293.61015349 24.60969102 293.60902805 29.03927612 293.60665894 C37.41484459 293.6004585 45.79036046 293.58406722 54.16590583 293.56395996 C65.49259631 293.53736177 76.81930131 293.5266167 88.14601517 293.51495552 C105.9740104 293.49618552 123.80189466 293.45633029 141.62988281 293.41992188 C141.62988281 321.46992188 141.62988281 349.51992188 141.62988281 378.41992188 C147.15060692 375.33314436 147.15060692 375.33314436 152.21582031 371.82617188 C152.82731934 371.35961182 153.43881836 370.89305176 154.06884766 370.41235352 C154.70773926 369.91985107 155.34663086 369.42734863 156.00488281 368.91992188 C161.59926345 364.66560272 167.24887204 360.51544489 173.00488281 356.48242188 C181.1713371 350.75681859 189.26130881 344.93077932 197.33740234 339.07861328 C199.67053435 337.39050903 202.00710019 335.70726475 204.34472656 334.02539062 C208.78029298 330.833428 213.20897909 327.6321629 217.62988281 324.41992188 C218.20464355 324.00258789 218.7794043 323.58525391 219.37158203 323.15527344 C236.20044254 310.88712154 251.44373174 296.79353602 266.14916992 282.0859375 C267.82159932 280.41571093 269.5019195 278.75369809 271.18261719 277.09179688 C277.78520206 270.52356417 283.86083647 263.74597388 289.62988281 256.41992188 C290.67759438 255.1413586 291.72803208 253.86502017 292.78222656 252.59179688 C309.56137174 232.07157372 324.9442447 208.32257005 331.62988281 182.41992188 C331.85546875 181.60136719 332.08105469 180.7828125 332.31347656 179.93945312 C337.3875139 157.92862911 332.71554409 133.43868962 325.62988281 112.41992188 C325.30745605 111.43113037 325.30745605 111.43113037 324.97851562 110.42236328 C318.95697733 92.1462295 309.3570078 76.774279 296.62988281 62.41992188 C295.9325 61.62070313 295.23511719 60.82148437 294.51660156 59.99804688 C279.49969126 43.91998445 257.32195448 33.21799082 235.30772769 32.32581091 C232.55461099 32.2854421 229.80308222 32.27704007 227.04966736 32.27947998 C225.99592424 32.27650886 224.94218113 32.27353774 223.85650641 32.27047658 C220.33165698 32.26181704 216.80684163 32.26028365 213.28198242 32.25878906 C210.75197274 32.25415891 208.22196375 32.24913399 205.69195557 32.2437439 C198.82181419 32.23063605 191.95168399 32.22414081 185.08153224 32.21973324 C180.78626746 32.21696497 176.49100492 32.21272653 172.19574165 32.20822906 C160.28786708 32.19604009 148.37999429 32.18574042 136.47211361 32.18235397 C135.71077001 32.18213441 134.94942641 32.18191484 134.1650118 32.18168862 C133.4019134 32.18147034 132.638815 32.18125207 131.85259241 32.18102717 C130.30643205 32.18058372 128.76027169 32.18013716 127.21411133 32.1796875 C126.44717296 32.17946607 125.68023459 32.17924464 124.89005566 32.1790165 C112.47450085 32.17507198 100.05900484 32.15762687 87.64347272 32.13432798 C74.87630108 32.11056395 62.10915888 32.09814981 49.34196478 32.09698606 C42.1819075 32.09607207 35.02192685 32.09038983 27.86189079 32.07216644 C21.1223155 32.05507286 14.38290985 32.05355043 7.64331055 32.06230545 C5.17713087 32.06307363 2.71094327 32.05876221 0.2447834 32.0488472 C-31.20150614 31.92988924 -55.85631852 39.81796457 -78.28027344 63.02148438 Z " fill="#000000" transform="translate(146.3701171875,34.580078125)"/>
</svg>
