<?xml version="1.0" encoding="UTF-8"?>
<svg version="1.1" xmlns="http://www.w3.org/2000/svg" width="512" height="512">
<path d="M0 0 C4.88801143 0.41897241 6.78263285 2.42852011 10 6 C11.16789062 7.24136719 11.16789062 7.24136719 12.359375 8.5078125 C16.49479082 13.03514681 20.53208377 17.59580963 24.375 22.375 C28.24218863 27.1714071 32.34980716 31.6704146 36.55810547 36.16357422 C40.4598253 40.35311567 44.07317487 44.72163825 47.65625 49.1875 C50.33208278 52.39849934 53.14359707 55.45027636 56 58.5 C60.45874444 63.26088994 64.6379783 68.1646782 68.72265625 73.25390625 C71.2182694 76.26319621 73.83775124 79.13928852 76.5 82 C80.88222453 86.71209402 85.02847898 91.56352765 89.046875 96.59375 C90.67600162 98.60083399 92.36783669 100.48267028 94.125 102.375 C96 105 96 105 96.125 107.5625 C93.76437687 112.67718346 88.60067671 116.35836718 84.5 120.125 C83.5821875 120.97320312 82.664375 121.82140625 81.71875 122.6953125 C75.46101695 128 75.46101695 128 72 128 C69.07701676 126.53850838 67.15994561 124.39019362 65 122 C64.32710937 121.27296875 63.65421875 120.5459375 62.9609375 119.796875 C58.50731126 114.9300257 54.30296312 109.93210503 50.21875 104.75390625 C46.12052316 99.66719864 41.81562594 94.75489538 37.55224609 89.80664062 C35.0217034 86.86137231 32.50918893 83.90096441 30 80.9375 C29.55551514 80.41373779 29.11103027 79.88997559 28.65307617 79.3503418 C26.66606866 77.00199118 24.73160209 74.64526085 22.875 72.19140625 C21.11336792 69.75153854 21.11336792 69.75153854 18 69 C18.08390303 94.41711285 18.17903764 119.83416222 18.28752708 145.25118256 C18.3376395 157.05285853 18.38408264 168.85452761 18.421875 180.65625 C18.4548258 190.94314864 18.49467419 201.22999353 18.54279006 211.51683283 C18.56802424 216.96313905 18.58981469 222.40940975 18.60334396 227.85575867 C18.61619217 232.98405408 18.63827649 238.11222752 18.66738319 243.24045563 C18.67643737 245.1205488 18.68214415 247.00066161 18.68421364 248.88077545 C18.68755145 251.45300325 18.70306977 254.02488838 18.7215271 256.5970459 C18.718625 257.7060306 18.718625 257.7060306 18.71566427 258.83741903 C18.76912549 263.84070081 19.63767437 268.18232039 21 273 C26.38742072 274.51077941 31.27883032 275.29196781 36.88923645 275.26501465 C37.64124523 275.26939592 38.39325402 275.27377719 39.16805094 275.27829123 C41.66523731 275.29052467 44.16221115 275.28880911 46.65942383 275.28710938 C48.45867216 275.29313882 50.25791768 275.30006438 52.05715942 275.30781555 C55.91978084 275.32266342 59.78235091 275.33144328 63.64499855 275.33552551 C69.75001288 275.34225296 75.85491732 275.36402098 81.95988464 275.38806152 C96.01354451 275.44112013 110.06723813 275.47460165 124.12095642 275.50782013 C137.01736282 275.5384903 149.91372176 275.57326839 162.8100664 275.62413073 C168.88237931 275.64750901 174.9546151 275.66122727 181.0269686 275.66762543 C184.79653071 275.67354947 188.56602986 275.68763211 192.33555984 275.70396996 C194.08714801 275.70986189 195.83875152 275.71231489 197.5903492 275.71113014 C199.97559491 275.70997639 202.36048434 275.72094333 204.74568176 275.73498535 C205.44352982 275.73168638 206.14137787 275.7283874 206.86037284 275.72498846 C210.47368159 275.7602562 211.89975572 275.93317048 215 278 C215.35644531 280.67382813 215.35644531 280.67382813 215.328125 284.03125 C215.32296875 285.23394531 215.3178125 286.43664062 215.3125 287.67578125 C215.291875 288.93777344 215.27125 290.19976562 215.25 291.5 C215.24484375 292.76199219 215.2396875 294.02398437 215.234375 295.32421875 C215.15405194 304.69189613 215.15405194 304.69189613 214 307 C210.50873926 308.16375358 207.37943392 308.14495205 203.74809265 308.14044189 C203.00403366 308.14341302 202.25997468 308.14638414 201.49336845 308.1494453 C198.99255659 308.1581375 196.49179258 308.15964103 193.9909668 308.16113281 C192.20045367 308.16576093 190.40994153 308.17078558 188.61943054 308.17617798 C183.74692312 308.18931192 178.87442948 308.19574986 174.00190711 308.20018864 C170.95427563 308.20312014 167.90664791 308.20722528 164.85901833 308.21169281 C155.31436038 308.22537559 145.76971103 308.2350362 136.22504395 308.2388947 C125.2263512 308.24336571 114.22778334 308.26086573 103.22912854 308.2898953 C94.7185137 308.31157319 86.20793381 308.32160237 77.69729167 308.32293582 C72.61967056 308.32398026 67.54216672 308.32980982 62.46457481 308.34775543 C57.67848575 308.36434 52.89260071 308.36634164 48.106493 308.35761642 C46.35951564 308.35685135 44.61252685 308.361118 42.8655777 308.37107468 C27.3796858 308.45408321 10.58210533 307.63495483 -1.5625 296.62890625 C-11.60768113 285.24618741 -14.17795789 272.2821481 -14.12025452 257.55908203 C-14.12110894 256.74778682 -14.12196337 255.9364916 -14.12284368 255.10061169 C-14.12448071 252.40298894 -14.11900642 249.70542944 -14.11352539 247.0078125 C-14.11324311 245.06577048 -14.11340205 243.12372836 -14.1139679 241.1816864 C-14.11425427 235.92405396 -14.10838335 230.66644442 -14.10139394 225.40881729 C-14.09513381 219.9088579 -14.0945545 214.40889795 -14.09336853 208.90893555 C-14.09026306 198.50044413 -14.08206023 188.09196324 -14.07201904 177.68347645 C-14.06083356 165.83103901 -14.05534132 153.97860107 -14.05032361 142.12615967 C-14.03987697 117.75076728 -14.0222927 93.37538423 -14 69 C-17.34027831 70.94305052 -19.80846407 72.60387838 -22.234375 75.625 C-22.80365723 76.32584717 -23.37293945 77.02669434 -23.95947266 77.7487793 C-24.55034668 78.49168213 -25.1412207 79.23458496 -25.75 80 C-26.37052246 80.76675049 -26.99104492 81.53350098 -27.63037109 82.32348633 C-29.42651647 84.54402652 -31.21368352 86.77155188 -33 89 C-34.53879313 90.89816644 -36.0799665 92.7944095 -37.625 94.6875 C-38.3159375 95.53441406 -39.006875 96.38132812 -39.71875 97.25390625 C-42.98901963 101.19054932 -46.33894383 105.05734706 -49.68432617 108.93017578 C-52.53159171 112.24043744 -55.28625849 115.59104869 -57.9375 119.0625 C-63.02197733 125.64892947 -63.02197733 125.64892947 -66 128 C-69.77179542 127.68416528 -71.82806125 126.68203668 -74.5625 124.125 C-77.07004729 121.78622993 -79.58434865 119.49483039 -82.21875 117.30078125 C-83.33365421 116.34672901 -84.44823814 115.39230237 -85.5625 114.4375 C-86.11172119 113.99100098 -86.66094238 113.54450195 -87.22680664 113.08447266 C-88.75390625 111.74609375 -88.75390625 111.74609375 -91 109 C-91.26082545 104.80459496 -90.19643026 103.24840775 -87.59375 99.95703125 C-86.57356386 98.89808271 -85.54164996 97.85034253 -84.5 96.8125 C-83.39591013 95.66779691 -82.29437313 94.52062641 -81.1953125 93.37109375 C-80.65036133 92.80374512 -80.10541016 92.23639648 -79.54394531 91.65185547 C-77.36562994 89.32129225 -75.36811796 86.8646115 -73.375 84.375 C-69.58164854 79.65042869 -65.56009421 75.19429586 -61.45703125 70.73828125 C-59.10623867 68.11839954 -56.88749541 65.43447781 -54.6875 62.6875 C-50.6131615 57.63243577 -46.24898935 52.91973894 -41.80200195 48.1965332 C-37.74171693 43.86069278 -33.96479424 39.35932039 -30.25 34.72265625 C-26.83966897 30.59591887 -23.19474218 26.69659713 -19.55859375 22.76953125 C-12.76261355 15.41327177 -6.38662399 7.71021005 0 0 Z " fill="#000000" transform="translate(92,52)"/>
<path d="M0 0 C2.46949784 -0.30138049 4.69029633 -0.40446292 7.16288757 -0.38095093 C7.90947012 -0.3856309 8.65605267 -0.39031087 9.42525893 -0.39513266 C11.94082895 -0.40715074 14.45586096 -0.39759867 16.97143555 -0.38818359 C18.77003295 -0.39224673 20.56862786 -0.39758715 22.36721802 -0.40411377 C27.26677259 -0.41783664 32.16613844 -0.41246494 37.06569648 -0.40297651 C42.19832865 -0.39539041 47.33094447 -0.40242401 52.46357727 -0.40713501 C61.09822488 -0.41260203 69.73279569 -0.40538288 78.36743164 -0.39111328 C88.32152256 -0.37485207 98.2754285 -0.38002373 108.22951478 -0.3965925 C116.78599801 -0.41026089 125.3424259 -0.41209897 133.89891654 -0.40427649 C139.00395307 -0.39962061 144.10890312 -0.39891594 149.21393394 -0.40888596 C154.02794405 -0.41762894 158.84171943 -0.41140145 163.6557045 -0.39420319 C165.41192678 -0.39027424 167.1681692 -0.39130981 168.92438316 -0.39799118 C184.41636156 -0.45143793 200.81447712 -0.00431206 213.0546875 10.81640625 C223.41288255 21.81921001 226.17757973 35.81433829 226.12025452 50.44091797 C226.12153615 51.65786079 226.12153615 51.65786079 226.12284368 52.89938831 C226.12448071 55.59701106 226.11900642 58.29457056 226.11352539 60.9921875 C226.11324311 62.93422952 226.11340205 64.87627164 226.1139679 66.8183136 C226.11425427 72.07594604 226.10838335 77.33355558 226.10139394 82.59118271 C226.09513381 88.0911421 226.0945545 93.59110205 226.09336853 99.09106445 C226.09026306 109.49955587 226.08206023 119.90803676 226.07201904 130.31652355 C226.06083356 142.16896099 226.05534132 154.02139893 226.05032361 165.87384033 C226.03987697 190.24923272 226.0222927 214.62461577 226 239 C229.34027831 237.05694948 231.80846407 235.39612162 234.234375 232.375 C235.08866089 231.32324585 235.08866089 231.32324585 235.96020508 230.25024414 C236.5508374 229.50766357 237.14146973 228.76508301 237.75 228 C238.67752075 226.85422485 238.67752075 226.85422485 239.6237793 225.68530273 C241.42246579 223.46209902 243.21197641 221.23178184 245 219 C249.31499001 213.64941239 253.63751721 208.35480287 258.3125 203.3125 C262.91816389 198.28444718 266.93237178 192.87326304 270.92700195 187.35668945 C271.41257568 186.69241943 271.89814941 186.02814941 272.3984375 185.34375 C272.82817871 184.74755859 273.25791992 184.15136719 273.70068359 183.53710938 C275 182 275 182 278 180 C281.76300213 180.11217622 283.56040093 180.64032803 286.4921875 183.0390625 C287.27851563 183.89242187 288.06484375 184.74578125 288.875 185.625 C292.55530401 189.52801529 296.28155861 193.02721589 300.50390625 196.33203125 C302.53004535 198.59093829 302.94573262 199.96554891 303 203 C301.48046875 205.5078125 301.48046875 205.5078125 299.1875 208.125 C297.94419922 209.56166016 297.94419922 209.56166016 296.67578125 211.02734375 C295.79277344 212.00832031 294.90976562 212.98929688 294 214 C293.14792969 214.95003906 292.29585938 215.90007812 291.41796875 216.87890625 C289.72788986 218.7455218 288.03129474 220.6062588 286.328125 222.4609375 C277.93311343 231.61657092 269.96056717 241.17063332 261.91015625 250.62890625 C257.28543704 256.05479877 252.63764374 261.43726632 247.8125 266.6875 C244.64169258 270.14015696 241.61964969 273.65530966 238.6875 277.3125 C234.62068367 282.35823141 230.26589151 287.06345911 225.82617188 291.77709961 C220.95132645 296.98150189 216.42092849 302.40244197 212 308 C207.11198857 307.58102759 205.21736715 305.57147989 202 302 C200.83210938 300.75863281 200.83210938 300.75863281 199.640625 299.4921875 C195.50520918 294.96485319 191.46791623 290.40419037 187.625 285.625 C183.75781137 280.8285929 179.65019284 276.3295854 175.44189453 271.83642578 C171.5401747 267.64688433 167.92682513 263.27836175 164.34375 258.8125 C161.66791722 255.60150066 158.85640293 252.54972364 156 249.5 C151.54125556 244.73911006 147.3620217 239.8353218 143.27734375 234.74609375 C140.7817306 231.73680379 138.16224876 228.86071148 135.5 226 C131.11777547 221.28790598 126.97152102 216.43647235 122.953125 211.40625 C121.32399838 209.39916601 119.63216331 207.51732972 117.875 205.625 C116 203 116 203 116.00390625 200.70703125 C117.4142454 196.87422721 120.06043899 194.68257908 123.0625 192.0625 C123.65087646 191.53760986 124.23925293 191.01271973 124.84545898 190.47192383 C126.55006423 188.96469638 128.27043376 187.47846656 130 186 C130.825 185.29101562 131.65 184.58203125 132.5 183.8515625 C136.25520629 180.82179379 136.25520629 180.82179379 138 180 C142.2417393 180.49433804 144.26037354 182.96833214 147 186 C148.00933594 187.09054688 148.00933594 187.09054688 149.0390625 188.203125 C153.49268874 193.0699743 157.69703688 198.06789497 161.78125 203.24609375 C165.87947684 208.33280136 170.18437406 213.24510462 174.44775391 218.19335938 C176.9782966 221.13862769 179.49081107 224.09903559 182 227.0625 C182.44448486 227.58626221 182.88896973 228.11002441 183.34692383 228.6496582 C185.33393134 230.99800882 187.26839791 233.35473915 189.125 235.80859375 C190.88663208 238.24846146 190.88663208 238.24846146 194 239 C193.91609697 213.58288715 193.82096236 188.16583778 193.71247292 162.74881744 C193.6623605 150.94714147 193.61591736 139.14547239 193.578125 127.34375 C193.5451742 117.05685136 193.50532581 106.77000647 193.45720994 96.48316717 C193.43197576 91.03686095 193.41018531 85.59059025 193.39665604 80.14424133 C193.38380783 75.01594592 193.36172351 69.88777248 193.33261681 64.75954437 C193.32356263 62.8794512 193.31785585 60.99933839 193.31578636 59.11922455 C193.31244855 56.54699675 193.29693023 53.97511162 193.2784729 51.4029541 C193.281375 50.2939694 193.281375 50.2939694 193.28433573 49.16258097 C193.23087451 44.15929919 192.36232563 39.81767961 191 35 C185.6252074 33.49378095 180.74584847 32.70794279 175.14872742 32.73498535 C174.40080219 32.73060408 173.65287696 32.72622281 172.88228732 32.72170877 C170.39892014 32.70947634 167.91576669 32.71119081 165.43237305 32.71289062 C163.64297679 32.70686112 161.85358336 32.69993554 160.06419373 32.69218445 C156.22285319 32.67733708 152.38156427 32.66855685 148.54019737 32.66447449 C142.46878769 32.6577468 136.39748851 32.63597851 130.3261261 32.61193848 C116.34987169 32.55888097 102.37358335 32.52539839 88.3972702 32.49217987 C75.57177708 32.46150947 62.74633167 32.42673126 49.92090064 32.37586927 C43.88203923 32.35249135 37.84325535 32.33877282 31.80435312 32.33237457 C28.05554978 32.32645045 24.30680975 32.31236776 20.55803871 32.29603004 C18.81612593 32.29013821 17.07419773 32.28768509 15.33227539 32.28886986 C12.96016612 32.29002364 10.58841509 32.27905638 8.21635437 32.26501465 C7.52239726 32.26831362 6.82844015 32.2716126 6.11345404 32.27501154 C2.50790215 32.23962647 1.0946291 32.06308606 -2 30 C-2.37231445 27.34204102 -2.37231445 27.34204102 -2.36328125 24.00390625 C-2.36263672 22.80572266 -2.36199219 21.60753906 -2.36132812 20.37304688 C-2.34521484 19.11556641 -2.32910156 17.85808594 -2.3125 16.5625 C-2.31572266 15.30888672 -2.31894531 14.05527344 -2.32226562 12.76367188 C-2.26692108 3.40038162 -2.26692108 3.40038162 0 0 Z " fill="#000000" transform="translate(208,34)"/>
</svg>
