<?xml version="1.0" encoding="UTF-8"?>
<svg version="1.1" xmlns="http://www.w3.org/2000/svg" width="512" height="512">
<path d="M0 0 C1.00039307 0.27287842 1.00039307 0.27287842 2.02099609 0.55126953 C31.55316242 8.78612977 58.76507032 28.77099656 76 54 C76 54.66 76 55.32 76 56 C76.66 56 77.32 56 78 56 C78.3403125 55.19949219 78.3403125 55.19949219 78.6875 54.3828125 C93.04479872 28.31747852 124.33061088 8.69527109 152 0 C186.11392198 -9.57451512 226.95338883 -5.2655271 258 12 C267.5953232 17.60217986 276.21469136 24.30977585 284.50195312 31.68261719 C285.91081729 32.9215727 287.35294143 34.12241231 288.796875 35.3203125 C314.12671484 56.91656323 328.34731415 90.60136806 333 123 C333.28058893 126.99037329 333.32737703 130.96549669 333.3359375 134.96484375 C333.3425943 136.07823624 333.3492511 137.19162872 333.35610962 138.33876038 C333.366176 140.68423834 333.37092852 143.0297446 333.37060547 145.37524414 C333.37495022 148.89714974 333.41125843 152.41777075 333.44921875 155.93945312 C333.53634704 173.25175982 331.90267417 189.73714222 325.8125 206.0625 C325.51698242 206.8757373 325.22146484 207.68897461 324.91699219 208.52685547 C312.7197277 241.22738099 291.93325928 270.69890195 267.00390625 295.00390625 C264.50808003 297.49000215 262.2228664 300.12001713 259.921875 302.78515625 C250.11007605 314.09265626 239.54482559 324.24364328 228.22265625 334.02734375 C225.09947935 336.79923186 222.05338649 339.65166486 219 342.5 C214.07367386 347.09068916 209.11782255 351.62243392 204 356 C202.89576577 356.94653577 201.79160635 357.89315881 200.6875 358.83984375 C198.83726616 360.42582936 196.98668103 362.01139584 195.13500977 363.59570312 C192.05318645 366.23360156 188.98125565 368.88063461 185.9375 371.5625 C182.06891267 374.96291434 178.13256457 378.28200253 174.19677734 381.60400391 C168.35853282 386.53455909 162.55917383 391.50989268 156.76171875 396.48828125 C155.0195026 397.98326495 153.27567336 399.47634266 151.53125 400.96875 C141.62203664 409.44801211 131.73576654 417.95506756 121.9375 426.5625 C121.04417969 427.34173828 121.04417969 427.34173828 120.1328125 428.13671875 C118.92666403 429.19044187 117.7220245 430.24591554 116.52246094 431.30712891 C89.69806713 455.0059665 89.69806713 455.0059665 73.875 454.390625 C62.4872398 452.84337497 54.92584767 446.05127595 46.77783203 438.60839844 C43.92706908 436.02932314 40.99209962 433.55113341 38.0625 431.0625 C32.55712756 426.35121618 27.08039004 421.60731657 21.60791016 416.85791016 C15.67111522 411.70838251 9.70546545 406.59299766 3.73388672 401.48388672 C0.82105954 398.99104476 -2.08934061 396.49537234 -5 394 C-6.16665518 392.9999866 -7.33332184 391.99998659 -8.5 391 C-15.5 385 -22.5 379 -29.5 373 C-30.07806396 372.50459717 -30.65612793 372.00919434 -31.25170898 371.4987793 C-32.41300111 370.50322388 -33.57397364 369.50729553 -34.73461914 368.51098633 C-37.73094327 365.93976226 -40.73330781 363.37614295 -43.74609375 360.82421875 C-49.16341533 356.22638967 -54.5080746 351.66249955 -59.45703125 346.5546875 C-63.50499794 342.47597676 -67.99593169 338.85093404 -72.375 335.13671875 C-83.53429147 325.6534851 -83.53429147 325.6534851 -88.4375 320.56640625 C-90.17704977 318.8225076 -92.00521083 317.22819814 -93.875 315.625 C-100.43428946 309.9538155 -106.43734692 303.78595463 -112.07421875 297.203125 C-114.38658952 294.55773532 -116.78855579 292.00461055 -119.1875 289.4375 C-155.41437756 250.24489879 -180.03537949 204.51386282 -179.5625 150.25 C-179.55824005 149.19994781 -179.5539801 148.14989563 -179.54959106 147.06802368 C-179.46036915 131.24505198 -178.75205036 116.2107114 -174 101 C-173.74299316 100.1538916 -173.48598633 99.3077832 -173.22119141 98.43603516 C-166.36890715 76.54153574 -154.431553 57.6825241 -139.35107422 40.54345703 C-138.06344471 39.07247876 -136.79864862 37.58160574 -135.53515625 36.08984375 C-119.19747634 17.26311698 -96.76064413 6.44783824 -73 0 C-72.19224121 -0.22300781 -71.38448242 -0.44601563 -70.55224609 -0.67578125 C-48.17050406 -6.57547634 -22.22069973 -6.32575241 0 0 Z M144 39 C142.98035156 39.52464844 141.96070313 40.04929687 140.91015625 40.58984375 C133.26605906 44.77097799 127.27903346 50.01211183 121 56 C119.61085186 57.19531351 118.21564055 58.38364312 116.8125 59.5625 C108.40767672 66.91314738 102.20339413 75.76214974 96.02539062 84.97851562 C89.23898263 94.92033912 89.23898263 94.92033912 83 97 C76.65365172 97.58616361 70.53059316 97.42480246 65 94 C60.71585915 90.21660289 57.72337102 85.65040771 54.75 80.8125 C50.50517806 73.95035512 45.38001801 67.9857154 40 62 C38.92105469 60.7934375 38.92105469 60.7934375 37.8203125 59.5625 C20.71400576 41.48791175 -3.16942476 28.66021923 -28.265625 27.76171875 C-61.12829658 27.15136879 -89.99438386 38.02997466 -114.02441406 60.57299805 C-138.55172968 84.38379344 -147.65591786 118.14320979 -148.29296875 151.4831543 C-148.66250757 207.38051946 -111.77768196 250.78032272 -74.51275635 288.56356812 C-71.84832269 291.25718634 -69.1751196 293.94199976 -66.5 296.625 C-65.98739624 297.14028259 -65.47479248 297.65556519 -64.94665527 298.1864624 C-59.14426281 304.01189316 -53.2594123 309.66502691 -47 315 C-45.32947538 316.49570227 -43.66219168 317.99504266 -42 319.5 C-38.37976277 322.76704335 -34.73016435 325.99520776 -31.05078125 329.1953125 C-28.73911203 331.22958141 -26.4646857 333.3022231 -24.1875 335.375 C-19.81714316 339.32371445 -15.29696921 343.0462721 -10.71875 346.75 C-7.22234218 349.64357889 -3.88491868 352.69349183 -0.53125 355.75 C2.0884481 358.07862053 4.7751531 360.29562947 7.5 362.5 C11.96276213 366.11032442 16.22719533 369.88427929 20.46875 373.75 C23.0884481 376.07862053 25.7751531 378.29562947 28.5 380.5 C32.96420457 384.11149134 37.23002114 387.88660694 41.47265625 391.75390625 C44.06962393 394.06187598 46.73404013 396.25555863 49.4375 398.4375 C53.29551527 401.55987677 57.02202607 404.77848305 60.6875 408.125 C61.59113281 408.95 62.49476563 409.775 63.42578125 410.625 C65.06018701 412.13291912 66.6839651 413.65250504 68.29296875 415.1875 C68.98003906 415.826875 69.66710937 416.46625 70.375 417.125 C71.25285156 417.96417969 71.25285156 417.96417969 72.1484375 418.8203125 C74.67337848 420.42903017 76.05427763 420.48945692 79 420 C81.39432089 418.35792097 81.39432089 418.35792097 83.625 416.0625 C87.12984501 412.7393877 90.66765205 409.58269292 94.4375 406.5625 C98.24087503 403.48663412 101.90082652 400.31246834 105.5 397 C109.9698512 392.88621091 114.59044893 389.02912703 119.31640625 385.21484375 C121.94708557 383.04367173 124.47942424 380.79758643 127 378.5 C130.39598682 375.40444804 133.86171531 372.44848793 137.4375 369.5625 C141.24087503 366.48663412 144.90082652 363.31246834 148.5 360 C152.96903728 355.88696 157.59010528 352.03166562 162.3125 348.21484375 C166.67287021 344.62134097 170.83078102 340.81185735 175 337 C179.9609457 332.46427822 184.93810184 328.01357161 190.1875 323.8125 C200.84070318 315.16990136 210.58449701 305.49920539 220.22412109 295.75683594 C223.04685993 292.91398639 225.8747455 290.14999949 228.9375 287.5625 C238.30691438 279.58638216 247.1045547 270.58757795 254.703125 260.91796875 C256.45152908 258.69678193 258.22668539 256.52433662 260.046875 254.36328125 C284.95048642 224.65046714 302.21577943 190.45487894 302.25 151.125 C302.25067474 150.43058807 302.25134949 149.73617615 302.25204468 149.02072144 C302.20264172 117.02653187 291.75632771 85.10152872 268.98828125 61.95703125 C267.99355755 60.96997156 266.9975159 59.98423782 266 59 C265.12730469 58.11699219 264.25460937 57.23398438 263.35546875 56.32421875 C231.55494748 25.66794412 183.07529271 18.70432231 144 39 Z " fill="#FFFFFF" transform="translate(179,31)"/>
</svg>
